HIERARCHY
ROOT Hips
{
	OFFSET 0.00000 0.00000 0.00000
	CHANNELS 6 Xposition Yposition Zposition Zrotation Yrotation Xrotation 
	JOINT LHipJoint
	{
		OFFSET 0 0 0
		CHANNELS 3 Zrotation Yrotation Xrotation
		JOINT LeftUpLeg
		{
			OFFSET 1.55766 -1.60504 1.11378
			CHANNELS 3 Zrotation Yrotation Xrotation
			JOINT LeftLeg
			{
				OFFSET 2.29047 -6.29302 0.00000
				CHANNELS 3 Zrotation Yrotation Xrotation
				JOINT LeftFoot
				{
					OFFSET 2.52265 -6.93093 0.00000
					CHANNELS 3 Zrotation Yrotation Xrotation
					JOINT LeftToeBase
					{
						OFFSET 0.17633 -0.48446 2.02656
						CHANNELS 3 Zrotation Yrotation Xrotation
						End Site
						{
							OFFSET 0.00000 -0.00000 1.04989
						}
					}
				}
			}
		}
	}
	JOINT RHipJoint
	{
		OFFSET 0 0 0
		CHANNELS 3 Zrotation Yrotation Xrotation
		JOINT RightUpLeg
		{
			OFFSET -1.48599 -1.60504 1.11378
			CHANNELS 3 Zrotation Yrotation Xrotation
			JOINT RightLeg
			{
				OFFSET -2.27280 -6.24448 0.00000
				CHANNELS 3 Zrotation Yrotation Xrotation
				JOINT RightFoot
				{
					OFFSET -2.50834 -6.89161 0.00000
					CHANNELS 3 Zrotation Yrotation Xrotation
					JOINT RightToeBase
					{
						OFFSET -0.26967 -0.74090 2.08741
						CHANNELS 3 Zrotation Yrotation Xrotation
						End Site
						{
							OFFSET -0.00000 -0.00000 1.10614
						}
					}
				}
			}
		}
	}
	JOINT LowerBack
	{
		OFFSET 0 0 0
		CHANNELS 3 Zrotation Yrotation Xrotation
		JOINT Spine
		{
			OFFSET 0.06481 2.02437 -0.08472
			CHANNELS 3 Zrotation Yrotation Xrotation
			JOINT Spine1
			{
				OFFSET 0.00015 1.96711 0.18069
				CHANNELS 3 Zrotation Yrotation Xrotation
				JOINT Neck
				{
					OFFSET 0 0 0
					CHANNELS 3 Zrotation Yrotation Xrotation
					JOINT Neck1
					{
						OFFSET -0.29961 1.68293 -0.13041
						CHANNELS 3 Zrotation Yrotation Xrotation
						JOINT Head
						{
							OFFSET 0.59697 1.61501 -0.14669
							CHANNELS 3 Zrotation Yrotation Xrotation
							End Site
							{
								OFFSET 0.22973 1.74906 -0.10148
							}
						}
					}
				}
				JOINT LeftShoulder
				{
					OFFSET 0 0 0
					CHANNELS 3 Zrotation Yrotation Xrotation
					JOINT LeftArm
					{
						OFFSET 3.37968 1.02893 0.31147
						CHANNELS 3 Zrotation Yrotation Xrotation
						JOINT LeftForeArm
						{
							OFFSET 5.19807 -0.00000 -0.00000
							CHANNELS 3 Zrotation Yrotation Xrotation
							JOINT LeftHand
							{
								OFFSET 3.09370 -0.00000 -0.00000
								CHANNELS 3 Zrotation Yrotation Xrotation
								JOINT LeftFingerBase
								{
									OFFSET 0 0 0
									CHANNELS 3 Zrotation Yrotation Xrotation
									JOINT LeftHandIndex1
									{
										OFFSET 0.67263 -0.00000 -0.00000
										CHANNELS 3 Zrotation Yrotation Xrotation
										End Site
										{
											OFFSET 0.54229 -0.00000 -0.00000
										}
									}
								}
								JOINT LThumb
								{
									OFFSET 0 0 0
									CHANNELS 3 Zrotation Yrotation Xrotation
									End Site
									{
										OFFSET 0.55057 -0.00000 0.55057
									}
								}
							}
						}
					}
				}
				JOINT RightShoulder
				{
					OFFSET 0 0 0
					CHANNELS 3 Zrotation Yrotation Xrotation
					JOINT RightArm
					{
						OFFSET -3.38254 0.96355 -0.16120
						CHANNELS 3 Zrotation Yrotation Xrotation
						JOINT RightForeArm
						{
							OFFSET -5.45222 -0.00000 -0.00000
							CHANNELS 3 Zrotation Yrotation Xrotation
							JOINT RightHand
							{
								OFFSET -3.01284 -0.00000 -0.00000
								CHANNELS 3 Zrotation Yrotation Xrotation
								JOINT RightFingerBase
								{
									OFFSET 0 0 0
									CHANNELS 3 Zrotation Yrotation Xrotation
									JOINT RightHandIndex1
									{
										OFFSET -0.62230 -0.00000 -0.00000
										CHANNELS 3 Zrotation Yrotation Xrotation
										End Site
										{
											OFFSET -0.50171 -0.00000 -0.00000
										}
									}
								}
								JOINT RThumb
								{
									OFFSET 0 0 0
									CHANNELS 3 Zrotation Yrotation Xrotation
									End Site
									{
										OFFSET -0.50937 -0.00000 0.50937
									}
								}
							}
						}
					}
				}
			}
		}
	}
}
MOTION
Frames: 13
Frame Time: .0083333
4.7664 15.5687 38.5515 0 0 0 0 0 0 -21 0 0 0 0 0 0 0 0 0 0 0 0 0 0 21 0 0 0 0 0 0 0 0 0 0 0 0 0 0 0 0 0 0 0 0 0 0 -16 0 0 21 0 0 11 0 0 0 -8 0 0 0 0 0 0 0 0 0 0 0 0 0 0 0 0 0 0 0 0 8 0 0 0 0 0 0 0 0 0 0 0 0 0 0 0 0 0
4.7664 15.5687 38.5515 -178.9730 -1.4144 -165.4510 0.0000 0.0000 0.0000 -21.8956 -1.6753 -25.2737 2.6751 10.1495 29.4623 0.7546 -17.9276 -18.7155 0.1013 -2.0528 -5.6516 0.0000 0.0000 0.0000 14.2018 21.9649 -25.9603 -7.7666 -15.9449 51.7175 0.1179 15.7034 -9.7337 -1.7627 8.3533 -23.7925 0.2551 3.4465 -4.4012 -2.2032 3.9956 -6.6831 -2.3736 1.6917 -4.2684 -28.8120 -3.9080 5.3644 37.3068 -12.3916 7.0744 18.7813 -7.7877 5.4929 0.0000 -0.0000 0.0000 -83.5417 10.1193 49.1673 18.1234 -28.3148 -4.6076 -0.0000 0.0000 -32.4511 20.0465 -15.1137 -5.4347 -7.1250 0.0000 -0.0000 -5.0887 13.9855 3.7231 0.0000 -0.0000 0.0000 92.8537 -6.2047 13.9432 -13.4918 22.0036 -2.6347 0.0000 0.0000 28.9833 -12.3641 -3.0532 0.6689 7.1250 -0.0000 -0.0000 11.5310 -32.9472 3.4656
4.7561 15.5611 38.5307 -179.0370 -1.3268 -165.4750 0.0000 0.0000 0.0000 -22.0203 -1.5422 -25.1410 2.6602 10.1236 29.3778 0.7513 -18.0194 -18.7330 0.0940 -1.9770 -5.4422 0.0000 0.0000 0.0000 14.1660 21.5148 -27.2190 -8.2050 -16.2680 53.2978 -0.0069 14.9045 -10.5432 -1.8575 8.5627 -24.4366 0.1184 3.4091 -4.1363 -2.2715 3.9445 -6.7034 -2.3853 1.6693 -4.4458 -29.0065 -4.1978 6.3117 37.4799 -13.1105 6.5946 18.8502 -8.2640 5.4936 0.0000 0.0000 0.0000 -83.4382 10.5247 48.3119 18.0940 -28.2774 -4.5937 -0.0000 0.0000 -32.7462 20.2450 -15.3736 -5.5846 -7.1250 0.0000 -0.0000 -4.9663 13.6907 3.6638 0.0000 0.0000 0.0000 93.0735 -6.3469 14.0638 -13.5244 22.0507 -2.6469 0.0000 0.0000 29.1127 -15.1235 -0.3320 0.0897 7.1250 -0.0000 -0.0000 9.0238 -30.2575 3.2840
4.7415 15.5606 38.5051 -179.1630 -1.2546 -165.5220 0.0000 0.0000 0.0000 -22.2505 -1.3657 -24.8739 2.6175 10.0485 29.1340 0.7428 -18.1047 -18.7100 0.0862 -1.8937 -5.2119 0.0000 0.0000 0.0000 14.0655 21.0232 -28.3624 -8.5359 -16.4996 54.4708 -0.0643 14.4532 -10.8726 -1.7367 8.2947 -23.6127 -0.0420 3.3102 -3.8772 -2.3316 3.8381 -6.5295 -2.3679 1.6344 -4.4196 -29.2083 -4.5832 6.6650 37.7260 -13.7609 6.0308 18.9293 -8.6456 5.5806 -0.0000 0.0000 0.0000 -83.4334 10.4911 47.4335 18.0609 -28.2351 -4.5780 -0.0000 0.0000 -33.5178 20.6946 -15.3816 -5.7219 -7.1250 0.0000 -0.0000 -4.6635 13.6320 3.4447 -0.0000 0.0000 0.0000 93.2433 -6.0662 14.2743 -13.6224 22.1923 -2.6838 0.0000 0.0000 28.9856 -14.7187 -0.2112 0.0555 7.1250 -0.0000 -0.0000 9.3290 -30.1287 3.4267
4.7311 15.5618 38.4759 -179.2700 -1.2221 -165.5560 0.0000 0.0000 0.0000 -22.4250 -1.2483 -24.6177 2.5804 9.9826 28.9203 0.7378 -18.1833 -18.7098 0.0825 -1.8530 -5.0996 0.0000 0.0000 0.0000 14.0034 20.5656 -29.5782 -8.8311 -16.6978 55.5040 -0.1141 14.1412 -11.2201 -1.7218 8.2609 -23.5093 -0.2367 3.2277 -3.6260 -2.3723 3.7239 -6.5544 -2.3174 1.5833 -4.6024 -29.2015 -4.7430 7.8688 37.8049 -14.1737 5.2284 18.9264 -8.9646 5.2921 -0.0000 0.0000 0.0000 -83.4499 10.8461 46.3717 17.9412 -28.0818 -4.5215 -0.0000 0.0000 -33.8002 20.7392 -15.0842 -5.6277 -7.1250 0.0000 -0.0000 -4.6191 13.9404 3.3815 -0.0000 0.0000 0.0000 93.4084 -6.2472 14.5590 -13.7577 22.3873 -2.7352 0.0000 0.0000 28.6017 -13.4178 -1.0592 0.2527 7.1250 -0.0000 -0.0000 10.4393 -30.9683 3.6330
4.7196 15.5603 38.4474 -179.3620 -1.1919 -165.5890 0.0000 0.0000 0.0000 -22.5894 -1.1275 -24.3484 2.5381 9.9068 28.6755 0.7295 -18.2504 -18.6815 0.0771 -1.7911 -4.9288 0.0000 0.0000 0.0000 13.9780 20.0963 -30.6888 -9.0859 -16.8627 56.3867 -0.1625 13.7552 -11.5131 -1.7042 8.2207 -23.3865 -0.4023 3.1331 -3.3815 -2.4052 3.6028 -6.5091 -2.2712 1.5328 -4.7058 -29.2691 -5.0014 8.7495 37.9217 -14.6957 4.5370 18.9398 -9.3145 5.1602 -0.0000 0.0000 0.0000 -83.4767 11.0527 45.3282 17.8315 -27.9409 -4.4700 -0.0000 0.0000 -34.1302 20.8333 -14.9436 -5.6043 -7.1250 0.0000 -0.0000 -4.5488 14.0782 3.3163 -0.0000 0.0000 0.0000 93.5537 -6.2673 14.8459 -13.8694 22.5477 -2.7778 0.0000 0.0000 28.3434 -12.8731 -1.1959 0.2733 7.1250 -0.0000 -0.0000 10.8840 -31.0949 3.7591
4.7084 15.5592 38.4166 -179.4350 -1.1766 -165.6180 0.0000 0.0000 0.0000 -22.7252 -1.0299 -24.0789 2.5000 9.8379 28.4533 0.7260 -18.3011 -18.6793 0.0728 -1.7407 -4.7895 0.0000 0.0000 0.0000 13.9903 19.6338 -31.7518 -9.2828 -16.9863 57.0631 -0.1985 13.4616 -11.7337 -1.6939 8.1970 -23.3141 -0.5526 3.0319 -3.1512 -2.4242 3.4738 -6.4551 -2.2173 1.4786 -4.7917 -29.3131 -5.2644 9.6213 38.0257 -15.1970 3.8090 18.9423 -9.6491 5.0105 -0.0000 0.0000 0.0000 -83.5273 11.2172 44.2507 17.6890 -27.7571 -4.4034 -0.0000 0.0000 -34.3978 20.8601 -14.7733 -5.5500 -7.1250 0.0000 -0.0000 -4.5226 14.2551 3.2801 -0.0000 0.0000 0.0000 93.6801 -6.2751 15.1589 -13.9878 22.7173 -2.8234 0.0000 0.0000 28.0528 -12.1367 -1.5126 0.3252 7.1250 -0.0000 -0.0000 11.5028 -31.3962 3.8955
4.6976 15.5580 38.3836 -179.4790 -1.1796 -165.6360 0.0000 0.0000 0.0000 -22.8194 -0.9641 -23.8237 2.4683 9.7801 28.2674 0.7273 -18.3363 -18.7051 0.0694 -1.7001 -4.6776 0.0000 0.0000 0.0000 14.0477 19.1828 -32.7872 -9.4346 -17.0794 57.5814 -0.2282 13.2489 -11.9361 -1.6958 8.2014 -23.3276 -0.6812 2.9275 -2.9407 -2.4265 3.3392 -6.4115 -2.1566 1.4207 -4.8770 -29.3929 -5.5068 10.4735 38.1623 -15.6874 3.1165 18.9794 -9.9818 4.8794 -0.0000 0.0000 0.0000 -83.5970 11.3819 43.1530 17.5145 -27.5311 -4.3225 -0.0000 0.0000 -34.5795 20.8182 -14.6142 -5.4799 -7.1250 0.0000 -0.0000 -4.5437 14.4276 3.2788 -0.0000 0.0000 0.0000 93.7833 -6.3142 15.5061 -14.1100 22.8918 -2.8708 0.0000 0.0000 27.7466 -11.5283 -1.7386 0.3546 7.1250 -0.0000 -0.0000 12.0120 -31.6069 4.0125
4.6870 15.5564 38.3485 -179.4910 -1.1979 -165.6430 0.0000 0.0000 0.0000 -22.8719 -0.9262 -23.5773 2.4411 9.7301 28.1069 0.7341 -18.3480 -18.7592 0.0678 -1.6798 -4.6214 0.0000 0.0000 0.0000 14.1528 18.7432 -33.7819 -9.5309 -17.1375 57.9085 -0.2505 13.1160 -12.1036 -1.6990 8.2089 -23.3503 -0.7780 2.8233 -2.7522 -2.4172 3.2066 -6.3594 -2.0996 1.3632 -4.9390 -29.5026 -5.7486 11.2475 38.3437 -16.1825 2.4541 19.0471 -10.3158 4.7854 0.0000 0.0000 0.0000 -83.6743 11.5028 42.0715 17.3122 -27.2675 -4.2294 -0.0000 0.0000 -34.7076 20.7586 -14.4554 -5.4051 -7.1250 0.0000 -0.0000 -4.5770 14.6017 3.2860 0.0000 0.0000 0.0000 93.8717 -6.3343 15.8527 -14.2268 23.0581 -2.9164 0.0000 0.0000 27.4617 -11.0835 -1.8280 0.3580 7.1250 -0.0000 -0.0000 12.3747 -31.6841 4.1151
4.6768 15.5543 38.3113 -179.4760 -1.2204 -165.6380 0.0000 0.0000 0.0000 -22.8878 -0.9180 -23.3434 2.4191 9.6893 27.9763 0.7477 -18.3290 -18.8471 0.0677 -1.6782 -4.6171 0.0000 0.0000 0.0000 14.2987 18.3260 -34.7415 -9.5747 -17.1636 58.0570 -0.2670 13.0438 -12.2418 -1.6980 8.2064 -23.3427 -0.8542 2.7246 -2.5803 -2.3967 3.0798 -6.3231 -2.0414 1.3072 -5.0072 -29.6480 -5.9616 11.9896 38.5695 -16.6645 1.8410 19.1544 -10.6482 4.7179 0.0000 -0.0000 0.0000 -83.7598 11.6287 41.0165 17.0854 -26.9702 -4.1260 -0.0000 0.0000 -34.7763 20.7038 -14.3064 -5.3355 -7.1250 0.0000 -0.0000 -4.6079 14.7648 3.2923 0.0000 -0.0000 0.0000 93.9422 -6.3943 16.2107 -14.3467 23.2282 -2.9635 0.0000 0.0000 27.1877 -10.8371 -1.7883 0.3423 7.1250 -0.0000 -0.0000 12.5631 -31.6378 4.1948
4.6669 15.5518 38.2711 -179.4400 -1.2416 -165.6270 0.0000 0.0000 0.0000 -22.8779 -0.9262 -23.1107 2.4016 9.6568 27.8724 0.7684 -18.2807 -18.9724 0.0694 -1.7001 -4.6776 0.0000 0.0000 0.0000 14.4796 17.9270 -35.6561 -9.5686 -17.1600 58.0367 -0.2808 13.0127 -12.3716 -1.6934 8.1958 -23.3105 -0.9118 2.6361 -2.4244 -2.3743 2.9661 -6.2913 -1.9907 1.2567 -5.0694 -29.7836 -6.1643 12.6985 38.8161 -17.1382 1.2495 19.2724 -10.9774 4.6643 0.0000 0.0000 0.0000 -83.8382 11.7410 39.9995 16.8345 -26.6391 -4.0128 -0.0000 0.0000 -34.7770 20.6895 -14.1175 -5.2630 -7.1250 0.0000 -0.0000 -4.6096 14.9657 3.2736 0.0000 0.0000 0.0000 94.0104 -6.4789 16.5592 -14.4707 23.4036 -3.0125 0.0000 0.0000 26.9341 -10.7634 -1.6855 0.3204 7.1250 -0.0000 -0.0000 12.6066 -31.5337 4.2423
4.6573 15.5492 38.2292 -179.3790 -1.2570 -165.6090 0.0000 0.0000 0.0000 -22.8375 -0.9558 -22.8843 2.3878 9.6309 27.7897 0.7952 -18.1943 -19.1238 0.0727 -1.7391 -4.7853 0.0000 0.0000 0.0000 14.6967 17.5590 -36.5340 -9.5163 -17.1287 57.8590 -0.2939 12.9850 -12.4949 -1.6889 8.1856 -23.2792 -0.9527 2.5529 -2.2867 -2.3396 2.8590 -6.2711 -1.9357 1.2084 -5.1329 -29.9016 -6.3464 13.4385 39.0555 -17.5780 0.6397 19.3919 -11.2914 4.5859 0.0000 -0.0000 0.0000 -83.9265 11.8624 39.0029 16.5681 -26.2849 -3.8942 -0.0000 0.0000 -34.6862 20.7186 -13.8907 -5.1885 -7.1250 0.0000 -0.0000 -4.5803 15.2021 3.2295 0.0000 -0.0000 0.0000 94.0572 -6.5910 16.9029 -14.5915 23.5739 -3.0607 0.0000 0.0000 26.7067 -10.7776 -1.6160 0.3076 7.1250 -0.0000 -0.0000 12.5857 -31.4651 4.2562
4.6480 15.5464 38.1853 -179.2970 -1.2581 -165.5870 0.0000 0.0000 0.0000 -22.7744 -0.9904 -22.6573 2.3762 9.6092 27.7202 0.8294 -18.0676 -19.3090 0.0790 -1.8133 -4.9900 0.0000 0.0000 0.0000 14.9457 17.2303 -37.3666 -9.4210 -17.0711 57.5349 -0.3080 12.9350 -12.6162 -1.6854 8.1776 -23.2548 -0.9796 2.4772 -2.1629 -2.2982 2.7642 -6.2398 -1.8805 1.1665 -5.1758 -29.9675 -6.5433 14.1570 39.2652 -18.0015 0.0014 19.4813 -11.5895 4.4902 -0.0000 -0.0000 0.0000 -84.0144 11.9496 38.0334 16.2889 -25.9108 -3.7713 -0.0000 0.0000 -34.5032 20.7833 -13.6474 -5.1171 -7.1250 0.0000 -0.0000 -4.5262 15.4526 3.1666 -0.0000 -0.0000 0.0000 94.0932 -6.6852 17.2242 -14.7140 23.7462 -3.1099 0.0000 0.0000 26.4953 -10.9041 -1.6055 0.3093 7.1250 -0.0000 -0.0000 12.4848 -31.4580 4.2228
